<svg width="206" height="64" viewBox="0 0 206 64" fill="none" xmlns="http://www.w3.org/2000/svg">
<rect width="206" height="64" rx="10" fill="#0D0D0D"/>
<path d="M55.0378 37.7931C54.4183 39.1671 54.1198 39.7806 53.3218 40.9956C52.2088 42.6905 50.6368 44.8026 48.6913 44.8206C46.9633 44.8356 46.5193 43.6955 44.1718 43.709C41.8258 43.7211 41.3368 44.8415 39.6073 44.825C37.6618 44.807 36.1723 42.9006 35.0578 41.2041C31.9423 36.4641 31.6168 30.8991 33.5383 27.9396C34.9033 25.838 37.0588 24.608 39.0838 24.608C41.1463 24.608 42.4438 25.739 44.1478 25.739C45.8023 25.739 46.8103 24.6051 49.1953 24.6051C50.9953 24.6051 52.9063 25.5875 54.2668 27.2825C49.8088 29.7261 50.5318 36.0921 55.0378 37.7931ZM47.3863 22.712C48.2518 21.599 48.9103 20.03 48.6718 18.425C47.2558 18.5225 45.6013 19.4225 44.6338 20.597C43.7578 21.662 43.0333 23.2415 43.3138 24.7775C44.8588 24.824 46.4578 23.9015 47.3863 22.712Z" fill="url(#paint0_linear_1_177)"/>
<path d="M71.7801 19.6721C72.6603 19.6721 73.3334 19.9143 73.7996 20.3987C74.2683 20.8805 74.5027 21.5771 74.5027 22.4885C74.5027 23.4 74.2657 24.1031 73.7918 24.5979C73.3204 25.0901 72.6499 25.3362 71.7801 25.3362H69.948V19.6721H71.7801ZM71.7801 24.6565C72.4051 24.6565 72.8816 24.4729 73.2097 24.1057C73.5379 23.7359 73.7019 23.1969 73.7019 22.4885C73.7019 21.7906 73.5392 21.2607 73.2137 20.8987C72.8881 20.5341 72.4103 20.3518 71.7801 20.3518H70.7176V24.6565H71.7801ZM77.3104 21.1448C77.9276 21.1448 78.4068 21.3323 78.7479 21.7073C79.089 22.0797 79.2596 22.6018 79.2596 23.2737C79.2596 23.9456 79.089 24.4677 78.7479 24.8401C78.4068 25.2125 77.9276 25.3987 77.3104 25.3987C76.6906 25.3987 76.2101 25.2125 75.869 24.8401C75.5279 24.4677 75.3573 23.9456 75.3573 23.2737C75.3573 22.6018 75.5279 22.0797 75.869 21.7073C76.2101 21.3323 76.6906 21.1448 77.3104 21.1448ZM77.3104 21.8088C76.925 21.8088 76.6307 21.9338 76.4276 22.1838C76.2271 22.4338 76.1268 22.7971 76.1268 23.2737C76.1268 23.7476 76.2271 24.1096 76.4276 24.3596C76.6307 24.6096 76.925 24.7346 77.3104 24.7346C77.6932 24.7346 77.9862 24.6096 78.1893 24.3596C78.3924 24.1096 78.494 23.7476 78.494 23.2737C78.494 22.7997 78.3924 22.4377 78.1893 22.1877C77.9862 21.9351 77.6932 21.8088 77.3104 21.8088ZM83.2001 23.3909C83.1637 23.2581 83.1077 23.0237 83.0322 22.6877C83.0165 22.6278 82.9996 22.5601 82.9814 22.4846C82.9657 22.4065 82.9449 22.3219 82.9189 22.2307C82.8824 22.3531 82.8394 22.5263 82.79 22.7502C82.7197 23.0549 82.6663 23.2685 82.6298 23.3909L82.079 25.3362H81.04L79.8798 21.2229H80.622L81.1845 23.2659L81.5595 24.6096C81.7418 24.0133 81.8746 23.5653 81.9579 23.2659L82.5595 21.2229H83.2704L83.872 23.2659C83.9579 23.5653 84.0907 24.0133 84.2704 24.6096L84.6454 23.2659L85.2079 21.2229H85.9501L84.79 25.3362H83.7509L83.2001 23.3909ZM87.5742 21.801C87.7721 21.5823 87.9896 21.4195 88.2266 21.3127C88.4635 21.206 88.7292 21.1526 89.0234 21.1526C89.4609 21.1526 89.7956 21.2789 90.0273 21.5315C90.2591 21.7841 90.375 22.1513 90.375 22.6331V25.3362H89.6211V22.6877C89.6211 22.3831 89.5586 22.1617 89.4336 22.0237C89.3086 21.8857 89.1081 21.8167 88.832 21.8167C88.5872 21.8167 88.3581 21.8713 88.1445 21.9807C87.931 22.0901 87.7591 22.2411 87.6289 22.4338V25.3362H86.8789V21.2229H87.4883L87.5742 21.801ZM91.7335 19.3362H92.4835V25.3362H91.7335V19.3362ZM95.5724 21.1448C96.1896 21.1448 96.6688 21.3323 97.0099 21.7073C97.351 22.0797 97.5216 22.6018 97.5216 23.2737C97.5216 23.9456 97.351 24.4677 97.0099 24.8401C96.6688 25.2125 96.1896 25.3987 95.5724 25.3987C94.9526 25.3987 94.4721 25.2125 94.131 24.8401C93.7899 24.4677 93.6193 23.9456 93.6193 23.2737C93.6193 22.6018 93.7899 22.0797 94.131 21.7073C94.4721 21.3323 94.9526 21.1448 95.5724 21.1448ZM95.5724 21.8088C95.187 21.8088 94.8927 21.9338 94.6896 22.1838C94.4891 22.4338 94.3888 22.7971 94.3888 23.2737C94.3888 23.7476 94.4891 24.1096 94.6896 24.3596C94.8927 24.6096 95.187 24.7346 95.5724 24.7346C95.9552 24.7346 96.2482 24.6096 96.4513 24.3596C96.6544 24.1096 96.756 23.7476 96.756 23.2737C96.756 22.7997 96.6544 22.4377 96.4513 22.1877C96.2482 21.9351 95.9552 21.8088 95.5724 21.8088ZM100.036 21.1604C100.549 21.1604 100.944 21.2958 101.22 21.5667C101.499 21.8349 101.638 22.219 101.638 22.719V25.3362H101.06L100.95 24.8557C100.549 25.2281 100.099 25.4143 99.5988 25.4143C99.1874 25.4143 98.8606 25.3036 98.6184 25.0823C98.3762 24.8609 98.2551 24.564 98.2551 24.1917C98.2551 23.7594 98.4322 23.4221 98.7863 23.1799C99.1405 22.9377 99.6379 22.8167 100.279 22.8167H100.884V22.7034C100.863 22.1174 100.562 21.8245 99.9817 21.8245C99.8046 21.8245 99.6054 21.8518 99.384 21.9065C99.1626 21.9586 98.94 22.0302 98.716 22.1213L98.509 21.512C98.7486 21.4 99.0012 21.314 99.2668 21.2542C99.535 21.1917 99.7915 21.1604 100.036 21.1604ZM100.325 23.3909C99.9087 23.3909 99.5845 23.4599 99.3527 23.5979C99.121 23.7333 99.0051 23.9234 99.0051 24.1682C99.0051 24.3557 99.0689 24.5002 99.1965 24.6018C99.3241 24.7008 99.5025 24.7502 99.7317 24.7502C99.9504 24.7502 100.164 24.7047 100.372 24.6135C100.581 24.5198 100.751 24.3948 100.884 24.2385V23.3909H100.325ZM105.696 24.8167C105.519 25.0198 105.33 25.1682 105.129 25.262C104.931 25.3531 104.713 25.3987 104.473 25.3987C103.897 25.3987 103.452 25.2203 103.137 24.8635C102.822 24.5068 102.664 24.0002 102.664 23.344C102.664 22.6617 102.851 22.1265 103.223 21.7385C103.598 21.3479 104.116 21.1526 104.778 21.1526C105.017 21.1526 105.308 21.1903 105.649 21.2659V19.3362H106.399V25.3284H105.801L105.696 24.8167ZM104.52 24.7346C104.783 24.7346 105.012 24.6643 105.207 24.5237C105.405 24.3831 105.552 24.1851 105.649 23.9299V21.9377C105.435 21.8857 105.275 21.8531 105.168 21.8401C105.061 21.8245 104.934 21.8167 104.785 21.8167C104.358 21.8167 104.026 21.9521 103.789 22.2229C103.552 22.4911 103.434 22.8648 103.434 23.344C103.434 23.7867 103.528 24.1292 103.715 24.3713C103.905 24.6135 104.173 24.7346 104.52 24.7346ZM111.522 21.1448C112.139 21.1448 112.618 21.3323 112.959 21.7073C113.301 22.0797 113.471 22.6018 113.471 23.2737C113.471 23.9456 113.301 24.4677 112.959 24.8401C112.618 25.2125 112.139 25.3987 111.522 25.3987C110.902 25.3987 110.422 25.2125 110.08 24.8401C109.739 24.4677 109.569 23.9456 109.569 23.2737C109.569 22.6018 109.739 22.0797 110.08 21.7073C110.422 21.3323 110.902 21.1448 111.522 21.1448ZM111.522 21.8088C111.136 21.8088 110.842 21.9338 110.639 22.1838C110.439 22.4338 110.338 22.7971 110.338 23.2737C110.338 23.7476 110.439 24.1096 110.639 24.3596C110.842 24.6096 111.136 24.7346 111.522 24.7346C111.905 24.7346 112.198 24.6096 112.401 24.3596C112.604 24.1096 112.705 23.7476 112.705 23.2737C112.705 22.7997 112.604 22.4377 112.401 22.1877C112.198 21.9351 111.905 21.8088 111.522 21.8088ZM115.298 21.801C115.496 21.5823 115.714 21.4195 115.951 21.3127C116.188 21.206 116.453 21.1526 116.748 21.1526C117.185 21.1526 117.52 21.2789 117.751 21.5315C117.983 21.7841 118.099 22.1513 118.099 22.6331V25.3362H117.345V22.6877C117.345 22.3831 117.283 22.1617 117.158 22.0237C117.033 21.8857 116.832 21.8167 116.556 21.8167C116.311 21.8167 116.082 21.8713 115.869 21.9807C115.655 22.0901 115.483 22.2411 115.353 22.4338V25.3362H114.603V21.2229H115.212L115.298 21.801ZM123.832 25.1995C123.522 25.3219 123.234 25.3831 122.968 25.3831C122.573 25.3831 122.27 25.2815 122.062 25.0784C121.856 24.8726 121.754 24.5719 121.754 24.176V21.8713H121.035V21.2229H121.793L121.953 20.0471H122.507V21.2229H123.761V21.8713H122.507V24.0549C122.507 24.2893 122.553 24.4573 122.644 24.5588C122.738 24.6604 122.892 24.7112 123.105 24.7112C123.293 24.7112 123.488 24.6773 123.691 24.6096L123.832 25.1995ZM125.557 21.7502C125.938 21.3518 126.402 21.1526 126.952 21.1526C127.389 21.1526 127.724 21.2789 127.956 21.5315C128.188 21.7841 128.303 22.1513 128.303 22.6331V25.3362H127.55V22.6877C127.55 22.3831 127.487 22.1617 127.362 22.0237C127.237 21.8857 127.037 21.8167 126.76 21.8167C126.516 21.8167 126.287 21.8713 126.073 21.9807C125.859 22.0901 125.688 22.2411 125.557 22.4338V25.3362H124.807V19.3049H125.557V21.7502ZM130.111 23.4143C130.132 23.8414 130.247 24.1682 130.455 24.3948C130.663 24.6213 130.956 24.7346 131.334 24.7346C131.542 24.7346 131.743 24.7125 131.935 24.6682C132.131 24.6239 132.352 24.5484 132.599 24.4417L132.838 25.0002C132.554 25.1383 132.288 25.2398 132.041 25.3049C131.793 25.3674 131.545 25.3987 131.295 25.3987C130.675 25.3987 130.194 25.2125 129.853 24.8401C129.512 24.4677 129.342 23.9456 129.342 23.2737C129.342 22.6018 129.51 22.081 129.845 21.7112C130.181 21.3388 130.657 21.1526 131.271 21.1526C131.847 21.1526 132.275 21.3258 132.556 21.6721C132.84 22.0185 132.982 22.5432 132.982 23.2463V23.4143H130.111ZM132.205 22.7854C132.184 22.4651 132.093 22.2242 131.931 22.0627C131.773 21.8987 131.553 21.8167 131.271 21.8167C130.646 21.8167 130.273 22.1396 130.15 22.7854H132.205Z" fill="white"/>
<path d="M72.6433 39.2266L71.7215 42.1406H69.3152L72.9949 30.7969H76.2293L80.0027 42.1406H77.6355L76.6746 39.2266H72.6433ZM74.5808 32.8906L73.1902 37.4219H76.1199L74.6902 32.8906H74.5808ZM86.1962 33.6484C87.3577 33.6484 88.2613 34.0078 88.9072 34.7266C89.553 35.4453 89.8759 36.4661 89.8759 37.7891C89.8759 38.7161 89.691 39.5156 89.3212 40.1875C88.9514 40.8594 88.428 41.375 87.7509 41.7344C87.0738 42.0885 86.2717 42.2656 85.3447 42.2656C84.9072 42.2656 84.4384 42.2083 83.9384 42.0938V45.8047H81.54V33.7578H83.3759L83.7431 34.75C84.0973 34.3646 84.467 34.0859 84.8525 33.9141C85.2431 33.737 85.691 33.6484 86.1962 33.6484ZM85.204 40.6328C85.928 40.6328 86.4827 40.3984 86.8681 39.9297C87.2587 39.4609 87.454 38.7734 87.454 37.8672C87.454 36.1797 86.8681 35.3385 85.6962 35.3438C85.2691 35.3438 84.9019 35.4583 84.5947 35.6875C84.2926 35.9167 84.0738 36.2396 83.9384 36.6562V40.4609C84.2457 40.5339 84.4775 40.5807 84.6337 40.6016C84.79 40.6224 84.9801 40.6328 85.204 40.6328ZM96.4835 33.6484C97.6449 33.6484 98.5486 34.0078 99.1944 34.7266C99.8402 35.4453 100.163 36.4661 100.163 37.7891C100.163 38.7161 99.9783 39.5156 99.6085 40.1875C99.2387 40.8594 98.7152 41.375 98.0382 41.7344C97.3611 42.0885 96.559 42.2656 95.6319 42.2656C95.1944 42.2656 94.7257 42.2083 94.2257 42.0938V45.8047H91.8272V33.7578H93.6632L94.0303 34.75C94.3845 34.3646 94.7543 34.0859 95.1397 33.9141C95.5303 33.737 95.9783 33.6484 96.4835 33.6484ZM95.4913 40.6328C96.2152 40.6328 96.7699 40.3984 97.1553 39.9297C97.546 39.4609 97.7413 38.7734 97.7413 37.8672C97.7413 36.1797 97.1553 35.3385 95.9835 35.3438C95.5564 35.3438 95.1892 35.4583 94.8819 35.6875C94.5798 35.9167 94.3611 36.2396 94.2257 36.6562V40.4609C94.5329 40.5339 94.7647 40.5807 94.921 40.6016C95.0772 40.6224 95.2673 40.6328 95.4913 40.6328ZM109.691 30.6562C110.628 30.651 111.683 30.8568 112.855 31.2734L112.363 33.1484C111.274 32.763 110.389 32.5703 109.706 32.5703C109.154 32.5703 108.719 32.6797 108.402 32.8984C108.084 33.1172 107.925 33.4141 107.925 33.7891C107.925 34.1953 108.071 34.5182 108.363 34.7578C108.66 34.9974 109.199 35.2188 109.98 35.4219C111.131 35.7188 111.949 36.1302 112.433 36.6562C112.917 37.1771 113.16 37.8958 113.16 38.8125C113.16 39.9219 112.785 40.7734 112.035 41.3672C111.29 41.9557 110.225 42.25 108.839 42.25C107.709 42.25 106.498 41.9948 105.206 41.4844L105.785 39.6641C106.498 39.9193 107.081 40.099 107.535 40.2031C107.988 40.3021 108.417 40.3516 108.824 40.3516C109.412 40.3516 109.865 40.2266 110.183 39.9766C110.506 39.7214 110.667 39.3698 110.667 38.9219C110.667 38.6354 110.6 38.3958 110.464 38.2031C110.329 38.0104 110.1 37.8385 109.777 37.6875C109.454 37.5312 108.988 37.3776 108.378 37.2266C107.363 36.9818 106.62 36.6016 106.152 36.0859C105.683 35.5703 105.449 34.8906 105.449 34.0469C105.449 32.9688 105.818 32.1354 106.558 31.5469C107.303 30.9531 108.347 30.6562 109.691 30.6562ZM120.275 41.8203C119.551 42.1172 118.858 42.2656 118.197 42.2656C116.353 42.2656 115.431 41.3854 115.431 39.625V35.4375H114.048V33.7578H115.587L116.048 31.3594H117.814V33.7578H120.103V35.4375H117.814V39.2891C117.814 39.7161 117.892 40.0208 118.048 40.2031C118.21 40.3854 118.483 40.4766 118.869 40.4766C119.197 40.4766 119.548 40.4115 119.923 40.2812L120.275 41.8203ZM125.617 33.5625C126.997 33.5625 128.054 33.9401 128.789 34.6953C129.523 35.4453 129.89 36.5234 129.89 37.9297C129.89 39.3359 129.523 40.4193 128.789 41.1797C128.054 41.9401 126.997 42.3203 125.617 42.3203C124.252 42.3203 123.2 41.9427 122.461 41.1875C121.721 40.4271 121.351 39.3411 121.351 37.9297C121.351 36.5234 121.718 35.4453 122.453 34.6953C123.187 33.9401 124.242 33.5625 125.617 33.5625ZM125.617 35.3594C124.382 35.3542 123.765 36.2109 123.765 37.9297C123.765 39.6484 124.382 40.5078 125.617 40.5078C126.856 40.5078 127.476 39.6484 127.476 37.9297C127.476 36.2109 126.856 35.3542 125.617 35.3594ZM133.982 34.9219C134.508 34.0573 135.245 33.625 136.193 33.625C136.396 33.625 136.568 33.638 136.709 33.6641C136.855 33.6849 137.04 33.7266 137.263 33.7891L136.99 35.8828C136.542 35.7214 136.146 35.6432 135.803 35.6484C135.428 35.6484 135.11 35.7161 134.849 35.8516C134.589 35.9818 134.37 36.1901 134.193 36.4766V42.1406H131.787V33.7578H133.693L133.982 34.9219ZM140.293 38.3984C140.418 39.8255 141.152 40.5391 142.496 40.5391C142.913 40.5391 143.332 40.4922 143.754 40.3984C144.176 40.2995 144.642 40.1432 145.152 39.9297L145.73 41.4219C144.46 42.0104 143.285 42.3021 142.207 42.2969C140.884 42.2969 139.845 41.9115 139.09 41.1406C138.335 40.3698 137.957 39.2995 137.957 37.9297C137.957 36.5651 138.327 35.5026 139.066 34.7422C139.806 33.9766 140.842 33.5938 142.176 33.5938C144.681 33.5938 145.934 35.013 145.934 37.8516V38.3984H140.293ZM143.73 37.0078C143.663 35.8411 143.15 35.2578 142.191 35.2578C141.66 35.2578 141.241 35.4036 140.934 35.6953C140.631 35.9818 140.434 36.4193 140.34 37.0078H143.73Z" fill="white"/>
<defs>
<linearGradient id="paint0_linear_1_177" x1="32.3454" y1="18.425" x2="55.0377" y2="48.1494" gradientUnits="userSpaceOnUse">
<stop stop-color="#E5E5E5"/>
<stop offset="1" stop-color="white"/>
</linearGradient>
</defs>
</svg>
