<svg width="24" height="27" viewBox="0 0 24 27" fill="none" xmlns="http://www.w3.org/2000/svg">
<path d="M23.0379 19.7931C22.4184 21.1671 22.1199 21.7806 21.3219 22.9956C20.2089 24.6905 18.6369 26.8026 16.6914 26.8206C14.9634 26.8356 14.5194 25.6955 12.1719 25.709C9.82589 25.7211 9.33689 26.8415 7.60739 26.825C5.66189 26.807 4.17239 24.9006 3.05789 23.2041C-0.0576056 18.4641 -0.383106 12.8991 1.53839 9.93955C2.90339 7.83805 5.05889 6.60805 7.08389 6.60805C9.14639 6.60805 10.4439 7.73905 12.1479 7.73905C13.8024 7.73905 14.8104 6.60505 17.1954 6.60505C18.9954 6.60505 20.9064 7.58755 22.2669 9.28255C17.8089 11.7261 18.5319 18.0921 23.0379 19.7931ZM15.3864 4.71205C16.2519 3.59905 16.9104 2.03005 16.6719 0.425049C15.2559 0.522549 13.6014 1.42255 12.6339 2.59705C11.7579 3.66205 11.0334 5.24155 11.3139 6.77755C12.8589 6.82405 14.4579 5.90155 15.3864 4.71205Z" fill="url(#paint0_linear_1_187)"/>
<defs>
<linearGradient id="paint0_linear_1_187" x1="0.34549" y1="0.425049" x2="23.0378" y2="30.1494" gradientUnits="userSpaceOnUse">
<stop stop-color="#E5E5E5"/>
<stop offset="1" stop-color="white"/>
</linearGradient>
</defs>
</svg>
