<svg width="47" height="47" viewBox="0 0 47 47" fill="none" xmlns="http://www.w3.org/2000/svg">
<path fill-rule="evenodd" clip-rule="evenodd" d="M20.4207 23.5943V35.0902C20.4198 35.13 20.427 35.1695 20.4418 35.2065C20.4567 35.2434 20.4788 35.2769 20.5069 35.305C20.5351 35.3331 20.5686 35.3553 20.6055 35.3701C20.6424 35.3849 20.6819 35.3921 20.7217 35.3913H24.9865C25.0262 35.3921 25.0657 35.3849 25.1026 35.3701C25.1396 35.3553 25.1731 35.3331 25.2012 35.305C25.2293 35.2769 25.2515 35.2434 25.2663 35.2065C25.2811 35.1695 25.2883 35.13 25.2875 35.0902V23.4061H28.3857C28.4597 23.4064 28.5311 23.3788 28.5858 23.3288C28.6404 23.2788 28.6742 23.2102 28.6805 23.1364L28.9815 19.6117C28.9841 19.5707 28.9782 19.5295 28.9642 19.4907C28.9502 19.452 28.9285 19.4166 28.9003 19.3866C28.872 19.3566 28.838 19.3327 28.8002 19.3165C28.7624 19.3002 28.7216 19.2918 28.6805 19.2919H25.2875V16.7832C25.2875 16.5021 25.3992 16.2325 25.5979 16.0337C25.7967 15.835 26.0663 15.7233 26.3474 15.7233H28.7369C28.7762 15.7233 28.815 15.7155 28.8512 15.7003C28.8874 15.6851 28.9201 15.6628 28.9476 15.6347C28.9751 15.6067 28.9966 15.5735 29.0111 15.537C29.0255 15.5005 29.0325 15.4615 29.0317 15.4223V11.885C29.0317 11.8063 29.0008 11.7306 28.9457 11.6743C28.8906 11.6181 28.8157 11.5856 28.7369 11.584H24.7042C23.5682 11.584 22.4786 12.0353 21.6753 12.8386C20.872 13.6419 20.4207 14.7315 20.4207 15.8675V19.2668H18.2883C18.249 19.266 18.21 19.273 18.1735 19.2874C18.1371 19.3018 18.1038 19.3234 18.0758 19.3509C18.0477 19.3783 18.0255 19.4111 18.0103 19.4473C17.9951 19.4835 17.9872 19.5223 17.9872 19.5616V23.0862C17.9872 23.1255 17.9951 23.1643 18.0103 23.2005C18.0255 23.2367 18.0477 23.2695 18.0758 23.2969C18.1038 23.3244 18.1371 23.346 18.1735 23.3604C18.21 23.3748 18.249 23.3819 18.2883 23.381H20.4207V23.5943Z" fill="#939090"/>
<path d="M23.5 0C18.8521 0 14.3087 1.37825 10.4441 3.96046C6.57955 6.54268 3.5675 10.2129 1.78884 14.5069C0.0101844 18.801 -0.455197 23.5261 0.451556 28.0846C1.35831 32.6432 3.59648 36.8305 6.88301 40.117C10.1695 43.4035 14.3568 45.6417 18.9154 46.5484C23.4739 47.4552 28.199 46.9898 32.4931 45.2112C36.7871 43.4325 40.4573 40.4204 43.0395 36.5559C45.6218 32.6913 47 28.1479 47 23.5C46.9934 17.2694 44.5153 11.296 40.1097 6.89032C35.704 2.48466 29.7305 0.00664061 23.5 0ZM43.9833 23.5C43.9846 27.553 42.7838 31.5153 40.5328 34.8857C38.2819 38.2562 35.0819 40.8834 31.3376 42.435C27.5934 43.9866 23.4731 44.3928 19.498 43.6024C15.5228 42.8121 11.8713 40.8605 9.00541 37.9946C6.13951 35.1287 4.18793 31.4772 3.39753 27.502C2.60714 23.5269 3.01343 19.4066 4.56501 15.6623C6.1166 11.9181 8.74377 8.71813 12.1142 6.46718C15.4847 4.21624 19.447 3.01544 23.5 3.01668C28.9305 3.02332 34.1366 5.1835 37.9766 9.02343C41.8165 12.8634 43.9767 18.0695 43.9833 23.5Z" fill="#939090"/>
</svg>
