<svg width="47" height="47" viewBox="0 0 47 47" fill="none" xmlns="http://www.w3.org/2000/svg">
<path d="M31.3333 17.0216C31.3333 17.3007 31.2506 17.5736 31.0955 17.8056C30.9405 18.0377 30.7201 18.2185 30.4622 18.3254C30.2044 18.4322 29.9206 18.4601 29.6469 18.4057C29.3732 18.3512 29.1217 18.2168 28.9244 18.0195C28.727 17.8221 28.5926 17.5707 28.5382 17.2969C28.4837 17.0232 28.5117 16.7395 28.6185 16.4816C28.7253 16.2238 28.9062 16.0034 29.1382 15.8483C29.3703 15.6933 29.6431 15.6105 29.9222 15.6105C30.1078 15.6097 30.2916 15.6456 30.4632 15.7162C30.6348 15.7869 30.7907 15.8908 30.9219 16.022C31.0531 16.1532 31.157 16.3091 31.2276 16.4806C31.2982 16.6522 31.3342 16.8361 31.3333 17.0216ZM29.5773 23.331C29.5773 24.5009 29.2302 25.6446 28.5801 26.6174C27.93 27.5901 27.0059 28.3481 25.9249 28.7956C24.8439 29.243 23.6544 29.3598 22.507 29.131C21.3596 28.9023 20.3058 28.3384 19.4789 27.5107C18.652 26.683 18.0892 25.6286 17.8617 24.4809C17.6342 23.3332 17.7523 22.1439 18.2009 21.0633C18.6495 19.9828 19.4085 19.0595 20.3819 18.4104C21.3553 17.7613 22.4993 17.4155 23.6693 17.4168C25.2363 17.4201 26.738 18.0444 27.8454 19.153C28.9528 20.2616 29.5756 21.764 29.5773 23.331ZM27.4512 23.331C27.4512 22.5867 27.2305 21.8592 26.817 21.2403C26.4035 20.6215 25.8158 20.1392 25.1282 19.8544C24.4406 19.5696 23.684 19.4951 22.954 19.6403C22.2241 19.7855 21.5536 20.1438 21.0273 20.6701C20.501 21.1964 20.1427 21.8669 19.9975 22.5968C19.8523 23.3268 19.9268 24.0834 20.2116 24.771C20.4964 25.4586 20.9787 26.0463 21.5975 26.4598C22.2164 26.8733 22.9439 27.094 23.6882 27.094C24.6862 27.094 25.6433 26.6975 26.349 25.9918C27.0547 25.2861 27.4512 24.329 27.4512 23.331ZM35.6044 18.5833C35.6044 16.6704 34.8445 14.8359 33.4919 13.4833C32.1393 12.1307 30.3048 11.3709 28.3919 11.3709H18.583C17.6353 11.37 16.6968 11.556 15.821 11.9181C14.9452 12.2802 14.1494 12.8113 13.479 13.4811C12.8086 14.1509 12.2768 14.9463 11.9139 15.8218C11.5511 16.6972 11.3643 17.6356 11.3643 18.5833V28.4236C11.3643 29.3712 11.5511 30.3096 11.9139 31.1851C12.2768 32.0605 12.8086 32.8559 13.479 33.5257C14.1494 34.1956 14.9452 34.7267 15.821 35.0888C16.6968 35.4509 17.6353 35.6368 18.583 35.636H28.4233C30.3361 35.636 32.1706 34.8761 33.5232 33.5235C34.8758 32.1709 35.6357 30.3364 35.6357 28.4236L35.6044 18.5833ZM33.2336 28.3169C33.2336 29.6293 32.7123 30.888 31.7843 31.816C30.8563 32.744 29.5977 33.2653 28.2853 33.2653H18.6896C17.3766 33.2653 16.1174 32.7442 15.1884 31.8163C14.2594 30.8885 13.7367 29.6299 13.735 28.3169V18.6899C13.735 17.3759 14.257 16.1156 15.1862 15.1865C16.1153 14.2573 17.3756 13.7353 18.6896 13.7353H28.3167C29.6296 13.7369 30.8882 14.2597 31.816 15.1887C32.7439 16.1177 33.265 17.377 33.265 18.6899L33.2336 28.3169Z" fill="#939090"/>
<path d="M23.5 0C18.8522 0 14.3087 1.37825 10.4441 3.96046C6.57955 6.54268 3.5675 10.2129 1.78884 14.5069C0.0101844 18.801 -0.455197 23.5261 0.451556 28.0846C1.35831 32.6432 3.59648 36.8305 6.88301 40.117C10.1695 43.4035 14.3568 45.6417 18.9154 46.5484C23.4739 47.4552 28.199 46.9898 32.4931 45.2112C36.7871 43.4325 40.4573 40.4204 43.0395 36.5559C45.6218 32.6913 47 28.1479 47 23.5C46.9934 17.2694 44.5153 11.296 40.1097 6.89032C35.704 2.48466 29.7306 0.00664061 23.5 0ZM23.5 43.9896C19.4476 43.9896 15.4861 42.7879 12.1166 40.5365C8.74711 38.285 6.12091 35.085 4.5701 31.341C3.01929 27.597 2.61352 23.4773 3.40412 19.5027C4.19471 15.5281 6.14617 11.8772 9.01169 9.01167C11.8772 6.14615 15.5281 4.1947 19.5027 3.4041C23.4773 2.61351 27.5971 3.01927 31.341 4.57008C35.085 6.12089 38.285 8.74709 40.5365 12.1166C42.7879 15.4861 43.9896 19.4475 43.9896 23.5C43.9846 28.9326 41.8243 34.1414 37.9828 37.9828C34.1414 41.8243 28.9327 43.9846 23.5 43.9896Z" fill="#939090"/>
</svg>
