<svg width="29" height="30" viewBox="0 0 29 30" fill="none" xmlns="http://www.w3.org/2000/svg">
<path d="M21.2771 19.5588C24.79 17.6299 27.4532 16.1602 27.6827 16.046C28.4171 15.6554 29.1754 14.6219 27.6827 13.819C27.2008 13.5666 24.6061 12.1425 21.2771 10.3062L16.6622 14.9667L21.2771 19.5588Z" fill="#FFD900"/>
<path d="M16.6624 14.9666L1.96802 29.7763C2.31291 29.822 2.70234 29.7306 3.16143 29.4782C4.1253 28.9506 14.343 23.3707 21.2773 19.5598L16.6624 14.9666Z" fill="#F43249"/>
<path d="M16.6624 14.9667L21.2773 10.329C21.2773 10.329 4.19497 1.00665 3.16144 0.456199C2.77201 0.225511 2.33576 0.15699 1.94519 0.225511L16.6624 14.9667Z" fill="#00EE76"/>
<path d="M16.6622 14.967L1.94501 0.22583C1.34773 0.364015 0.842957 0.891629 0.842957 1.97084C0.842957 3.69301 0.842957 26.6077 0.842957 28.0318C0.842957 29.0196 1.23353 29.7311 1.96785 29.7996L16.6622 14.967Z" fill="#00D3FF"/>
</svg>
