<svg width="206" height="64" viewBox="0 0 206 64" fill="none" xmlns="http://www.w3.org/2000/svg">
<rect width="206" height="64" rx="10" fill="#0D0D0D"/>
<path d="M50.2771 36.5588C53.79 34.6299 56.4532 33.1602 56.6827 33.046C57.4171 32.6554 58.1754 31.6219 56.6827 30.819C56.2008 30.5666 53.6061 29.1425 50.2771 27.3062L45.6622 31.9667L50.2771 36.5588Z" fill="#FFD900"/>
<path d="M45.6624 31.9666L30.968 46.7763C31.3129 46.822 31.7023 46.7306 32.1614 46.4782C33.1253 45.9506 43.343 40.3707 50.2773 36.5598L45.6624 31.9666Z" fill="#F43249"/>
<path d="M45.6624 31.9667L50.2773 27.329C50.2773 27.329 33.195 18.0067 32.1614 17.4562C31.772 17.2255 31.3358 17.157 30.9452 17.2255L45.6624 31.9667Z" fill="#00EE76"/>
<path d="M45.6622 31.967L30.945 17.2258C30.3477 17.364 29.843 17.8916 29.843 18.9708C29.843 20.693 29.843 43.6077 29.843 45.0318C29.843 46.0196 30.2335 46.7311 30.9678 46.7996L45.6622 31.967Z" fill="#00D3FF"/>
<path d="M74.1427 19.4757C74.1427 20.2757 73.9054 20.913 73.4307 21.3877C72.8974 21.953 72.1961 22.2357 71.3267 22.2357C70.4947 22.2357 69.7907 21.9477 69.2147 21.3717C68.6387 20.7957 68.3507 20.0863 68.3507 19.2437C68.3507 18.401 68.6387 17.6917 69.2147 17.1157C69.7907 16.5397 70.4947 16.2517 71.3267 16.2517C71.7481 16.2517 72.1454 16.3263 72.5187 16.4757C72.8921 16.625 73.1987 16.8357 73.4387 17.1077L72.9107 17.6357C72.7347 17.4223 72.5054 17.257 72.2227 17.1397C71.9454 17.017 71.6467 16.9557 71.3267 16.9557C70.7027 16.9557 70.1747 17.1717 69.7427 17.6037C69.3161 18.041 69.1027 18.5877 69.1027 19.2437C69.1027 19.8997 69.3161 20.4463 69.7427 20.8837C70.1747 21.3157 70.7027 21.5317 71.3267 21.5317C71.8974 21.5317 72.3721 21.3717 72.7507 21.0517C73.1294 20.7317 73.3481 20.2917 73.4067 19.7317H71.3267V19.0437H74.1027C74.1294 19.193 74.1427 19.337 74.1427 19.4757ZM78.509 16.3797V17.0837H75.901V18.8997H78.253V19.5877H75.901V21.4037H78.509V22.1077H75.165V16.3797H78.509ZM81.5809 17.0837V22.1077H80.8449V17.0837H79.2449V16.3797H83.1809V17.0837H81.5809ZM86.6991 22.1077H85.9631V16.3797H86.6991V22.1077ZM88.7177 22.1077H87.9817V16.3797H88.8777L91.6617 20.8357H91.6937L91.6617 19.7317V16.3797H92.3977V22.1077H91.6297L88.7177 17.4357H88.6857L88.7177 18.5397V22.1077ZM101.018 19.2437C101.018 20.0917 100.735 20.801 100.17 21.3717C99.5989 21.9477 98.9002 22.2357 98.0736 22.2357C97.2416 22.2357 96.5429 21.9477 95.9776 21.3717C95.4122 20.801 95.1296 20.0917 95.1296 19.2437C95.1296 18.3957 95.4122 17.6863 95.9776 17.1157C96.5429 16.5397 97.2416 16.2517 98.0736 16.2517C98.9056 16.2517 99.6042 16.5423 100.17 17.1237C100.735 17.6943 101.018 18.401 101.018 19.2437ZM95.8816 19.2437C95.8816 19.905 96.0896 20.4517 96.5056 20.8837C96.9269 21.3157 97.4496 21.5317 98.0736 21.5317C98.6976 21.5317 99.2176 21.3157 99.6336 20.8837C100.055 20.457 100.266 19.9103 100.266 19.2437C100.266 18.577 100.055 18.0303 99.6336 17.6037C99.2176 17.1717 98.6976 16.9557 98.0736 16.9557C97.4496 16.9557 96.9269 17.1717 96.5056 17.6037C96.0896 18.0357 95.8816 18.5823 95.8816 19.2437ZM102.75 22.1077H102.014V16.3797H102.91L105.694 20.8357H105.726L105.694 19.7317V16.3797H106.43V22.1077H105.662L102.75 17.4357H102.718L102.75 18.5397V22.1077Z" fill="white"/>
<path d="M98.5696 31.7983C95.9292 31.7983 93.7479 33.8414 93.7479 36.6428C93.7479 39.4213 95.9064 41.4872 98.5696 41.4872C101.233 41.4872 103.391 39.4442 103.391 36.6428C103.391 33.8414 101.233 31.7983 98.5696 31.7983ZM98.5696 39.5595C97.1226 39.5595 95.8607 38.3421 95.8607 36.6211C95.8607 34.8761 97.1238 33.6827 98.5696 33.6827C100.015 33.6827 101.278 34.8761 101.278 36.6211C101.278 38.3421 100.015 39.5595 98.5696 39.5595ZM88.0767 31.7983C85.4135 31.7983 83.2551 33.8414 83.2551 36.6428C83.2551 39.4213 85.4135 41.4872 88.0767 41.4872C90.7399 41.4872 92.8983 39.4442 92.8983 36.6428C92.8983 33.8414 90.7399 31.7983 88.0767 31.7983ZM88.0767 39.5595C86.6297 39.5595 85.3678 38.3421 85.3678 36.6211C85.3678 34.8761 86.6309 33.6827 88.0767 33.6827C89.5236 33.6827 90.7855 34.8761 90.7855 36.6211C90.7855 38.3421 89.5453 39.5595 88.0767 39.5595ZM75.6092 33.291V35.334H80.4765C80.3383 36.4818 79.9489 37.3314 79.3745 37.9059C78.663 38.6173 77.5609 39.3985 75.6092 39.3985C72.6011 39.3985 70.2828 36.9648 70.2828 33.9568C70.2828 30.9487 72.6023 28.4693 75.6092 28.4693C77.2389 28.4693 78.4106 29.1123 79.2831 29.9391L80.7289 28.4922C79.5115 27.3216 77.8818 26.4263 75.6092 26.4263C71.4991 26.4263 68.0547 29.8009 68.0547 33.9111C68.0547 38.0212 71.4991 41.3959 75.6092 41.3959C77.8362 41.3959 79.4898 40.6616 80.8214 39.2831C82.1758 37.9287 82.5893 36.0227 82.5893 34.4844C82.5893 34.0024 82.5436 33.5662 82.4739 33.1985L75.6092 33.291ZM126.627 34.8749C126.236 33.7957 124.997 31.7983 122.517 31.7983C120.036 31.7983 117.993 33.7501 117.993 36.6428C117.993 39.3517 120.036 41.4872 122.746 41.4872C124.95 41.4872 126.213 40.1328 126.741 39.3517L125.111 38.2496C124.56 39.0536 123.825 39.5812 122.746 39.5812C121.667 39.5812 120.91 39.0993 120.427 38.1114L126.832 35.4254L126.627 34.8749ZM120.106 36.5057C120.06 34.6454 121.553 33.6815 122.608 33.6815C123.458 33.6815 124.146 34.0949 124.399 34.7151L120.106 36.5057ZM114.894 41.1663H117.006V26.9767H114.894V41.1663ZM111.45 32.8775H111.382C110.9 32.3031 110.005 31.7983 108.856 31.7983C106.445 31.7983 104.264 33.9339 104.264 36.6428C104.264 39.3517 106.468 41.4644 108.856 41.4644C110.003 41.4644 110.899 40.9596 111.382 40.3624H111.45V41.051C111.45 42.9113 110.463 43.8981 108.879 43.8981C107.593 43.8981 106.789 42.957 106.468 42.1759L104.631 42.957C105.159 44.2429 106.56 45.8269 108.879 45.8269C111.358 45.8269 113.448 44.3571 113.448 40.7986V32.0964H111.45V32.8775ZM109.04 39.5595C107.593 39.5595 106.376 38.3421 106.376 36.6439C106.376 34.9457 107.594 33.7055 109.04 33.7055C110.464 33.7055 111.611 34.9457 111.611 36.6439C111.61 38.3193 110.463 39.5595 109.04 39.5595ZM136.477 26.9767H131.426V41.1663H133.538V35.7931H136.477C138.819 35.7931 141.114 34.0938 141.114 31.3849C141.114 28.6761 138.819 26.9767 136.477 26.9767ZM136.545 33.8197H133.56V28.9513H136.545C138.106 28.9513 139.025 30.26 139.025 31.3849C139.003 32.487 138.107 33.8197 136.545 33.8197ZM149.541 31.7755C148.026 31.7755 146.442 32.4413 145.799 33.9568L147.659 34.7379C148.073 33.9568 148.807 33.7044 149.588 33.7044C150.69 33.7044 151.792 34.3702 151.815 35.5407V35.6789C151.425 35.4494 150.622 35.1273 149.611 35.1273C147.591 35.1273 145.547 36.2522 145.547 38.3193C145.547 40.2253 147.2 41.4416 149.037 41.4416C150.461 41.4416 151.241 40.7986 151.723 40.0414H151.791V41.1435H153.834V35.7018C153.811 33.1996 151.952 31.7755 149.541 31.7755ZM149.289 39.5367C148.6 39.5367 147.635 39.1918 147.635 38.3433C147.635 37.2412 148.829 36.8278 149.862 36.8278C150.78 36.8278 151.217 37.0345 151.791 37.3097C151.63 38.6185 150.505 39.5367 149.289 39.5367ZM161.205 32.0975L158.794 38.2279H158.726L156.223 32.0975H153.951L157.716 40.6844L155.58 45.4832H157.785L163.547 32.0975H161.205ZM142.286 41.1663H144.399V26.9767H142.286V41.1663Z" fill="#EDEDED"/>
</svg>
