<svg width="47" height="47" viewBox="0 0 47 47" fill="none" xmlns="http://www.w3.org/2000/svg">
<path d="M35.8514 16.2904C35.0388 16.611 34.1857 16.8347 33.3125 16.9563C33.713 16.8903 34.3009 16.2124 34.5399 15.9364C34.9096 15.5173 35.1903 15.0368 35.3669 14.5205C35.3669 14.4785 35.4057 14.4305 35.3669 14.4005C35.3461 14.39 35.3228 14.3845 35.2991 14.3845C35.2754 14.3845 35.252 14.39 35.2312 14.4005C34.2886 14.8701 33.2857 15.2269 32.2465 15.4624C32.2107 15.474 32.1721 15.4757 32.1354 15.4672C32.0987 15.4586 32.0654 15.4403 32.0397 15.4144C31.9564 15.3261 31.868 15.242 31.7749 15.1624C31.3434 14.8178 30.8547 14.5402 30.3277 14.3405C29.6256 14.076 28.8678 13.9632 28.1118 14.0105C27.3754 14.0528 26.6573 14.241 26.0057 14.5625C25.3496 14.8791 24.7712 15.3182 24.3066 15.8524C23.8225 16.4028 23.476 17.0463 23.2923 17.7362C23.1342 18.3904 23.1145 19.0669 23.2341 19.7281C23.2341 19.8421 23.2342 19.8541 23.1308 19.8421C19.0284 19.2721 15.6302 17.9102 12.8716 14.9884C12.7489 14.8625 12.6843 14.8625 12.5873 14.9884C11.3792 16.6683 11.9413 19.3681 13.4724 20.7C13.6727 20.874 13.8794 21.054 14.1185 21.216C13.4279 21.1633 12.7546 20.9881 12.1351 20.7C12.0188 20.628 11.9542 20.67 11.9478 20.796C11.9397 20.9785 11.9505 21.1614 11.9801 21.342C12.0991 22.1984 12.4609 23.0102 13.0284 23.6943C13.596 24.3784 14.3489 24.9103 15.2103 25.2357C15.417 25.321 15.6339 25.3834 15.8563 25.4217C15.2183 25.541 14.5634 25.5613 13.9182 25.4817C13.7761 25.4517 13.7244 25.5177 13.7761 25.6436C14.6289 27.8095 16.4766 28.4514 17.8591 28.8174C18.04 28.8174 18.2273 28.8174 18.4147 28.8894C18.4147 28.8894 18.4147 28.8894 18.3824 28.8894C17.9237 29.5374 16.3344 30.0233 15.5915 30.2633C14.237 30.7142 12.7931 30.8862 11.3599 30.7673C11.1338 30.7673 11.0821 30.7673 11.0239 30.7673C10.9658 30.7673 11.0239 30.8513 11.0885 30.9053C11.3792 31.0852 11.67 31.2412 11.9672 31.3912C12.8667 31.8353 13.8154 32.1874 14.7968 32.4411C19.8876 33.749 25.6116 32.7891 29.4297 29.2674C32.4338 26.5016 33.4804 22.6679 33.4804 18.8642C33.4804 18.7142 33.6742 18.6302 33.7841 18.5522C34.5619 18.0059 35.2496 17.3571 35.8256 16.6263C35.9189 16.5216 35.9793 16.3949 36 16.2604C35.9742 16.2304 35.9289 16.2484 35.8514 16.2904Z" fill="#939090"/>
<path d="M23.5 0C18.8522 0 14.3087 1.37825 10.4441 3.96046C6.57955 6.54268 3.5675 10.2129 1.78884 14.5069C0.0101844 18.801 -0.455197 23.5261 0.451556 28.0846C1.35831 32.6432 3.59648 36.8305 6.88301 40.117C10.1695 43.4035 14.3568 45.6417 18.9154 46.5484C23.4739 47.4552 28.199 46.9898 32.4931 45.2112C36.7871 43.4325 40.4573 40.4204 43.0395 36.5559C45.6218 32.6913 47 28.1479 47 23.5C46.9934 17.2694 44.5153 11.296 40.1097 6.89032C35.704 2.48466 29.7306 0.00664061 23.5 0ZM23.5 43.9896C19.4473 43.9908 15.4852 42.7902 12.1149 40.5395C8.74456 38.2888 6.11739 35.0892 4.56562 31.3454C3.01385 27.6015 2.60719 23.4815 3.39707 19.5065C4.18696 15.5315 6.13792 11.88 9.00319 9.01389C11.8685 6.14774 15.5193 4.19568 19.4941 3.40457C23.4689 2.61347 27.589 3.01886 31.3333 4.56949C35.0777 6.12011 38.2781 8.74631 40.5298 12.1159C42.7815 15.4856 43.9833 19.4473 43.9833 23.5C43.9767 28.9311 41.8167 34.1378 37.977 37.9788C34.1372 41.8197 28.9311 43.9813 23.5 43.9896Z" fill="#939090"/>
</svg>
